<svg width="599.5025146484375px" height="121.28000183105469px" xmlns="http://www.w3.org/2000/svg" viewBox="-49.75125732421873 14.359999084472655 599.5025146484375 121.28000183105469" style="background: rgba(0, 0, 0, 0);" preserveAspectRatio="xMidYMid"><defs>
  <filter id="editing-scratch" x="-100%" y="-100%" width="300%" height="300%">
    <!-- COLOR -->
    <feFlood flood-color="#ddd" flood-opacity="0.75" result="COLOR-blu"></feFlood>
    <feFlood flood-color="#666" flood-opacity="0.4" result="COLOR-red"></feFlood>
    <!-- COLOR END -->

    <!-- Texture -->
    <feTurbulence baseFrequency=".05" type="fractalNoise" numOctaves="3" seed="0" result="Texture_10"></feTurbulence>
    <feColorMatrix type="matrix" values="0 0 0 0 0,
    0 0 0 0 0,
    0 0 0 0 0,
    0 0 0 -2.1 1.1" in="Texture_10" result="Texture_20"></feColorMatrix>

    <feColorMatrix result="Texture_30" type="matrix" values="0 0 0 0 0,
    0 0 0 0 0,
    0 0 0 0 0,
    0 0 0 -1.7 1.8" in="Texture_10"></feColorMatrix>
    <!-- Texture -->

    <!-- FILL -->
    <feOffset dx="-3" dy="4" in="SourceAlpha" result="FILL_10"></feOffset>
    <feDisplacementMap scale="17" in="FILL_10" in2="Texture_10" result="FILL_20"></feDisplacementMap>
    <feComposite operator="in" in="Texture_30" in2="FILL_20" result="FILL_40"></feComposite>
    <feComposite operator="in" in="COLOR-blu" in2="FILL_40" result="FILL_50"></feComposite>
    <!-- FILL END-->

    <!-- OUTLINE -->
    <feMorphology operator="dilate" radius="3" in="SourceGraphic" result="OUTLINE_10"></feMorphology>
    <feComposite operator="out" in="OUTLINE_10" in2="SourceGraphic" result="OUTLINE_20"></feComposite>
    <feDisplacementMap scale="7" in="OUTLINE_20" in2="Texture_10" result="OUTLINE_30"></feDisplacementMap>
    <feComposite operator="arithmetic" k2="-1" k3="1" in="Texture_20" in2="OUTLINE_30" result="OUTLINE_40"></feComposite>
    <!-- OUTLINE END-->

    <!-- BEVEL OUTLINE -->
    <feConvolveMatrix order="8,8" divisor="1" kernelMatrix="1 0 0 0 0 0 0 0 0 1 0 0 0 0 0 0 0 0 1 0 0 0 0 0 0 0 0 1 0 0 0 0 0 0 0 0 1 0 0 0 0 0 0 0 0 1 0 0 0 0 0 0 0 0 1 0 0 0 0 0 0 0 0 1 " in="SourceGraphic" result="BEVEL_10"></feConvolveMatrix>
    <feMorphology operator="dilate" radius="2" in="BEVEL_10" result="BEVEL_20"></feMorphology>
    <feComposite operator="out" in="BEVEL_20" in2="BEVEL_10" result="BEVEL_30"></feComposite>
    <feDisplacementMap scale="7" in="BEVEL_30" in2="Texture_10" result="BEVEL_40"></feDisplacementMap>
    <feComposite operator="arithmetic" k2="-1" k3="1" in="Texture_20" in2="BEVEL_40" result="BEVEL_50"></feComposite>
    <feOffset dx="-7" dy="-7" in="BEVEL_50" result="BEVEL_60"></feOffset>
    <feComposite operator="out" in="BEVEL_60" in2="OUTLINE_10" result="BEVEL_70"></feComposite>
    <!-- BEVEL OUTLINE END -->

    <!-- BEVEL FILL -->
    <feOffset dx="-9" dy="-9" in="BEVEL_10" result="BEVEL-FILL_10"></feOffset>
    <feComposite operator="out" in="BEVEL-FILL_10" in2="OUTLINE_10" result="BEVEL-FILL_20"></feComposite>
    <feDisplacementMap scale="17" in="BEVEL-FILL_20" in2="Texture_10" result="BEVEL-FILL_30"></feDisplacementMap>
    <feComposite operator="in" in="COLOR-red" in2="BEVEL-FILL_30" result="BEVEL-FILL_50"></feComposite> <!-- -->
    <!-- BEVEL FILL END-->

    <feMerge result="merge2">
     <feMergeNode in="BEVEL-FILL_50"></feMergeNode>
     <feMergeNode in="BEVEL_70"></feMergeNode>
     <feMergeNode in="FILL_50"></feMergeNode>
      <feMergeNode in="OUTLINE_40"></feMergeNode>
    </feMerge>
  </filter>
</defs>
<g filter="url(#editing-scratch)"><g transform="translate(38.675030797719955, 104.44000053405762)"><path d="M14.34 0L0.38 0L8.51-42.24L22.59-42.24L14.34 0ZM70.08 1.28L70.08 1.28L70.08 1.28Q62.34 1.28 62.34-4.74L62.34-4.74L62.34-4.74Q62.34-7.36 63.46-12.45L63.46-12.45L63.46-12.45Q64.58-17.54 64.96-19.58L64.96-19.58L64.96-19.58Q65.86-24.26 65.86-25.73L65.86-25.73L65.86-25.73Q65.86-28.99 63.42-28.99L63.42-28.99L63.42-28.99Q61.82-28.99 60.29-26.78L60.29-26.78L60.29-26.78Q58.75-24.58 58.05-20.16L58.05-20.16L54.08 0L41.60 1.28L45.06-16.13L45.06-16.13Q45.63-19.01 46.14-22.27L46.14-22.27L46.14-22.27Q46.66-25.54 46.66-26.05L46.66-26.05L46.66-26.05Q46.66-28.99 44.48-28.99L44.48-28.99L44.48-28.99Q43.01-28.99 41.41-26.82L41.41-26.82L41.41-26.82Q39.81-24.64 38.91-20.16L38.91-20.16L35.01 0L22.40 1.28L29.12-32.64L39.55-33.92L38.46-27.46L38.46-27.46Q40.13-30.91 43.20-32.42L43.20-32.42L43.20-32.42Q46.27-33.92 51.07-33.92L51.07-33.92L51.07-33.92Q53.82-33.92 55.62-32.58L55.62-32.58L55.62-32.58Q57.41-31.23 57.98-29.06L57.98-29.06L57.98-29.06Q59.07-31.30 61.86-32.61L61.86-32.61L61.86-32.61Q64.64-33.92 68.06-33.92L68.06-33.92L68.06-33.92Q71.49-33.92 73.18-33.18L73.18-33.18L73.18-33.18Q74.88-32.45 75.90-31.23L75.90-31.23L75.90-31.23Q77.63-28.99 77.63-24.90L77.63-24.90L77.63-24.90Q77.63-20.86 75.90-12.48L75.90-12.48L75.90-12.48Q75.01-8.38 75.01-6.88L75.01-6.88L75.01-6.88Q75.01-5.38 75.87-4.48L75.87-4.48L75.87-4.48Q76.74-3.58 78.02-3.46L78.02-3.46L78.02-3.46Q77.38-1.28 75.17 0L75.17 0L75.17 0Q72.96 1.28 70.08 1.28ZM85.73-1.92L85.73-1.92L85.73-1.92Q84.22-3.58 83.55-6.21L83.55-6.21L83.55-6.21Q82.88-8.83 82.88-13.12L82.88-13.12L82.88-13.12Q82.88-17.41 84.35-21.31L84.35-21.31L84.35-21.31Q85.82-25.22 88.51-28.03L88.51-28.03L88.51-28.03Q94.02-33.92 103.10-33.92L103.10-33.92L103.10-33.92Q106.37-33.92 108.74-32.83L108.74-32.83L119.68-33.92L114.94-8.96L114.94-8.96Q114.75-8.19 114.75-6.78L114.75-6.78L114.75-6.78Q114.75-5.38 115.62-4.48L115.62-4.48L115.62-4.48Q116.48-3.58 117.76-3.46L117.76-3.46L117.76-3.46Q117.12-1.28 114.78 0L114.78 0L114.78 0Q112.45 1.28 109.82 1.28L109.82 1.28L109.82 1.28Q107.20 1.28 105.44 0.29L105.44 0.29L105.44 0.29Q103.68-0.70 103.17-2.37L103.17-2.37L103.17-2.37Q102.14-0.77 99.97 0.26L99.97 0.26L99.97 0.26Q97.79 1.28 94.88 1.28L94.88 1.28L94.88 1.28Q91.97 1.28 89.60 0.51L89.60 0.51L89.60 0.51Q87.23-0.26 85.73-1.92ZM99.23-27.90L99.23-27.90L99.23-27.90Q98.50-26.75 97.86-24.80L97.86-24.80L97.86-24.80Q97.22-22.85 96.16-17.63L96.16-17.63L96.16-17.63Q95.10-12.42 95.10-8.70L95.10-8.70L95.10-8.70Q95.10-4.99 95.68-3.90L95.68-3.90L95.68-3.90Q96.26-2.82 97.28-2.82L97.28-2.82L97.28-2.82Q99.33-2.82 100.83-4.77L100.83-4.77L100.83-4.77Q102.34-6.72 102.91-10.18L102.91-10.18L106.30-28.93L106.30-28.93Q104.96-30.08 103.39-30.08L103.39-30.08L103.39-30.08Q101.82-30.08 100.90-29.57L100.90-29.57L100.90-29.57Q99.97-29.06 99.23-27.90ZM127.42-26.75L127.42-26.75L127.42-26.75Q129.60-29.82 132.90-31.87L132.90-31.87L132.90-31.87Q136.19-33.92 140.22-33.92L140.22-33.92L140.22-33.92Q144.26-33.92 146.18-32.64L146.18-32.64L158.72-33.92L154.37-9.34L154.37-9.34Q152.13 3.20 147.39 8.13L147.39 8.13L147.39 8.13Q142.85 12.80 134.02 12.80L134.02 12.80L134.02 12.80Q127.30 12.80 123.46 10.69L123.46 10.69L123.46 10.69Q119.62 8.58 119.62 5.06L119.62 5.06L119.62 5.06Q119.62 2.43 121.60 0.93L121.60 0.93L121.60 0.93Q123.58-0.58 126.66-0.58L126.66-0.58L126.66-0.58Q129.34-0.58 131.39 0.64L131.39 0.64L131.39 0.64Q132.61 1.28 133.18 2.18L133.18 2.18L133.18 2.18Q131.71 3.46 131.71 5.57L131.71 5.57L131.71 5.57Q131.71 8.32 134.27 8.32L134.27 8.32L134.27 8.32Q138.56 8.32 140.99-1.79L140.99-1.79L140.99-1.79Q141.70-4.54 142.27-7.30L142.27-7.30L142.27-7.30Q139.39-3.78 132.86-3.78L132.86-3.78L132.86-3.78Q128.32-3.78 125.70-5.95L125.70-5.95L125.70-5.95Q123.07-8.13 123.07-13.25L123.07-13.25L123.07-13.25Q123.07-16.45 124.16-20.06L124.16-20.06L124.16-20.06Q125.25-23.68 127.42-26.75ZM135.74-13.06L135.74-13.06L135.74-13.06Q135.74-8.70 137.98-8.70L137.98-8.70L137.98-8.70Q139.52-8.70 140.99-10.37L140.99-10.37L140.99-10.37Q142.14-11.71 142.59-13.70L142.59-13.70L145.86-30.14L145.86-30.14Q145.54-30.21 145.22-30.34L145.22-30.34L145.22-30.34Q144.58-30.59 143.74-30.59L143.74-30.59L143.74-30.59Q139.84-30.59 137.54-24.19L137.54-24.19L137.54-24.19Q135.74-19.20 135.74-13.06ZM187.14-10.82L187.14-10.82L187.14-10.82Q188.74-9.73 188.74-7.33L188.74-7.33L188.74-7.33Q188.74-4.93 187.52-3.39L187.52-3.39L187.52-3.39Q186.30-1.86 184.32-0.83L184.32-0.83L184.32-0.83Q180.22 1.28 175.81 1.28L175.81 1.28L175.81 1.28Q171.39 1.28 168.80 0.32L168.80 0.32L168.80 0.32Q166.21-0.64 164.48-2.43L164.48-2.43L164.48-2.43Q161.09-5.82 161.09-12.03L161.09-12.03L161.09-12.03Q161.09-21.70 166.34-27.58L166.34-27.58L166.34-27.58Q171.97-33.92 181.76-33.92L181.76-33.92L181.76-33.92Q187.84-33.92 190.85-31.36L190.85-31.36L190.85-31.36Q193.09-29.44 193.09-26.30L193.09-26.30L193.09-26.30Q193.09-15.04 173.63-15.04L173.63-15.04L173.63-15.04Q173.38-13.38 173.38-11.97L173.38-11.97L173.38-11.97Q173.38-9.02 174.69-7.90L174.69-7.90L174.69-7.90Q176-6.78 178.43-6.78L178.43-6.78L178.43-6.78Q180.86-6.78 183.46-7.90L183.46-7.90L183.46-7.90Q186.05-9.02 187.14-10.82ZM174.08-17.79L174.08-17.79L174.08-17.79Q178.62-17.79 181.25-20.61L181.25-20.61L181.25-20.61Q183.87-23.30 183.87-27.58L183.87-27.58L183.87-27.58Q183.87-29.06 183.33-29.86L183.33-29.86L183.33-29.86Q182.78-30.66 181.70-30.66L181.70-30.66L181.70-30.66Q180.61-30.66 179.68-30.24L179.68-30.24L179.68-30.24Q178.75-29.82 177.79-28.42L177.79-28.42L177.79-28.42Q175.42-25.22 174.08-17.79ZM233.41-29.57L233.41-29.57L233.41-29.57Q234.37-31.49 234.37-33.28L234.37-33.28L234.37-33.28Q234.37-35.07 234.18-36.06L234.18-36.06L234.18-36.06Q233.98-37.06 233.54-37.82L233.54-37.82L233.54-37.82Q232.58-39.49 230.66-39.49L230.66-39.49L230.66-39.49Q228.29-39.49 226.37-37.76L226.37-37.76L226.37-37.76Q224.32-35.97 224.32-33.15L224.32-33.15L224.32-33.15Q224.32-31.36 225.57-29.98L225.57-29.98L225.57-29.98Q226.82-28.61 228.74-27.33L228.74-27.33L228.74-27.33Q230.66-26.05 232.83-24.77L232.83-24.77L232.83-24.77Q235.01-23.49 236.93-21.95L236.93-21.95L236.93-21.95Q241.34-18.43 241.34-13.70L241.34-13.70L241.34-13.70Q241.34-10.50 239.65-7.78L239.65-7.78L239.65-7.78Q237.95-5.06 235.14-3.07L235.14-3.07L235.14-3.07Q228.99 1.28 220.86 1.28L220.86 1.28L220.86 1.28Q214.27 1.28 210.88-0.86L210.88-0.86L210.88-0.86Q207.49-3.01 207.49-6.27L207.49-6.27L207.49-6.27Q207.49-12.10 212.03-13.57L212.03-13.57L212.03-13.57Q213.31-14.02 215.26-14.02L215.26-14.02L215.26-14.02Q217.22-14.02 219.46-13.18L219.46-13.18L219.46-13.18Q218.43-10.56 218.43-8.19L218.43-8.19L218.43-8.19Q218.43-3.07 222.08-3.07L222.08-3.07L222.08-3.07Q224.45-3.07 226.40-4.80L226.40-4.80L226.40-4.80Q228.35-6.53 228.35-8.48L228.35-8.48L228.35-8.48Q228.35-10.43 227.10-11.84L227.10-11.84L227.10-11.84Q225.86-13.25 224-14.37L224-14.37L224-14.37Q222.14-15.49 220-16.58L220-16.58L220-16.58Q217.86-17.66 216-19.20L216-19.20L216-19.20Q211.65-22.72 211.65-28.35L211.65-28.35L211.65-28.35Q211.65-32 213.44-34.85L213.44-34.85L213.44-34.85Q215.23-37.70 218.11-39.62L218.11-39.62L218.11-39.62Q223.87-43.52 230.94-43.52L230.94-43.52L230.94-43.52Q238.02-43.52 241.44-41.41L241.44-41.41L241.44-41.41Q244.86-39.30 244.86-35.71L244.86-35.71L244.86-35.71Q244.86-32.58 242.43-30.59L242.43-30.59L242.43-30.59Q240.32-28.93 237.76-28.93L237.76-28.93L237.76-28.93Q235.20-28.93 233.41-29.57ZM272.13-10.82L272.13-10.82L272.13-10.82Q273.73-9.73 273.73-7.33L273.73-7.33L273.73-7.33Q273.73-4.93 272.51-3.39L272.51-3.39L272.51-3.39Q271.30-1.86 269.31-0.83L269.31-0.83L269.31-0.83Q265.22 1.28 260.80 1.28L260.80 1.28L260.80 1.28Q256.38 1.28 253.79 0.32L253.79 0.32L253.79 0.32Q251.20-0.64 249.47-2.43L249.47-2.43L249.47-2.43Q246.08-5.82 246.08-12.03L246.08-12.03L246.08-12.03Q246.08-21.70 251.33-27.58L251.33-27.58L251.33-27.58Q256.96-33.92 266.75-33.92L266.75-33.92L266.75-33.92Q272.83-33.92 275.84-31.36L275.84-31.36L275.84-31.36Q278.08-29.44 278.08-26.30L278.08-26.30L278.08-26.30Q278.08-15.04 258.62-15.04L258.62-15.04L258.62-15.04Q258.37-13.38 258.37-11.97L258.37-11.97L258.37-11.97Q258.37-9.02 259.68-7.90L259.68-7.90L259.68-7.90Q260.99-6.78 263.42-6.78L263.42-6.78L263.42-6.78Q265.86-6.78 268.45-7.90L268.45-7.90L268.45-7.90Q271.04-9.02 272.13-10.82ZM259.07-17.79L259.07-17.79L259.07-17.79Q263.62-17.79 266.24-20.61L266.24-20.61L266.24-20.61Q268.86-23.30 268.86-27.58L268.86-27.58L268.86-27.58Q268.86-29.06 268.32-29.86L268.32-29.86L268.32-29.86Q267.78-30.66 266.69-30.66L266.69-30.66L266.69-30.66Q265.60-30.66 264.67-30.24L264.67-30.24L264.67-30.24Q263.74-29.82 262.78-28.42L262.78-28.42L262.78-28.42Q260.42-25.22 259.07-17.79ZM283.04-1.92L283.04-1.92L283.04-1.92Q281.54-3.58 280.86-6.21L280.86-6.21L280.86-6.21Q280.19-8.83 280.19-13.12L280.19-13.12L280.19-13.12Q280.19-17.41 281.66-21.31L281.66-21.31L281.66-21.31Q283.14-25.22 285.82-28.03L285.82-28.03L285.82-28.03Q291.33-33.92 300.42-33.92L300.42-33.92L300.42-33.92Q303.68-33.92 306.05-32.83L306.05-32.83L316.99-33.92L312.26-8.96L312.26-8.96Q312.06-8.19 312.06-6.78L312.06-6.78L312.06-6.78Q312.06-5.38 312.93-4.48L312.93-4.48L312.93-4.48Q313.79-3.58 315.07-3.46L315.07-3.46L315.07-3.46Q314.43-1.28 312.10 0L312.10 0L312.10 0Q309.76 1.28 307.14 1.28L307.14 1.28L307.14 1.28Q304.51 1.28 302.75 0.29L302.75 0.29L302.75 0.29Q300.99-0.70 300.48-2.37L300.48-2.37L300.48-2.37Q299.46-0.77 297.28 0.26L297.28 0.26L297.28 0.26Q295.10 1.28 292.19 1.28L292.19 1.28L292.19 1.28Q289.28 1.28 286.91 0.51L286.91 0.51L286.91 0.51Q284.54-0.26 283.04-1.92ZM296.54-27.90L296.54-27.90L296.54-27.90Q295.81-26.75 295.17-24.80L295.17-24.80L295.17-24.80Q294.53-22.85 293.47-17.63L293.47-17.63L293.47-17.63Q292.42-12.42 292.42-8.70L292.42-8.70L292.42-8.70Q292.42-4.99 292.99-3.90L292.99-3.90L292.99-3.90Q293.57-2.82 294.59-2.82L294.59-2.82L294.59-2.82Q296.64-2.82 298.14-4.77L298.14-4.77L298.14-4.77Q299.65-6.72 300.22-10.18L300.22-10.18L303.62-28.93L303.62-28.93Q302.27-30.08 300.70-30.08L300.70-30.08L300.70-30.08Q299.14-30.08 298.21-29.57L298.21-29.57L298.21-29.57Q297.28-29.06 296.54-27.90ZM340.48-17.98L340.48-17.98L340.48-17.98Q342.78-22.08 342.78-26.24L342.78-26.24L342.78-26.24Q342.78-28.99 340.80-28.99L340.80-28.99L340.80-28.99Q339.26-28.99 337.66-26.37L337.66-26.37L337.66-26.37Q336-23.74 335.49-20.35L335.49-20.35L332.16 0L318.91 1.28L325.44-32.64L336-33.92L334.85-27.46L334.85-27.46Q337.98-33.92 345.02-33.92L345.02-33.92L345.02-33.92Q348.74-33.92 350.75-32L350.75-32L350.75-32Q352.77-30.08 352.77-26.14L352.77-26.14L352.77-26.14Q352.77-22.21 350.18-19.71L350.18-19.71L350.18-19.71Q347.58-17.22 343.17-17.22L343.17-17.22L343.17-17.22Q341.25-17.22 340.48-17.98ZM385.22-26.62L385.22-26.62L385.22-26.62Q385.22-23.94 382.98-22.27L382.98-22.27L382.98-22.27Q380.74-20.61 377.09-20.61L377.09-20.61L377.09-20.61Q375.55-20.61 374.66-21.06L374.66-21.06L374.66-21.06Q375.36-22.72 375.58-24.80L375.58-24.80L375.58-24.80Q375.81-26.88 375.81-27.46L375.81-27.46L375.81-27.46Q375.81-30.14 373.95-30.14L373.95-30.14L373.95-30.14Q372.67-30.14 371.23-28.54L371.23-28.54L371.23-28.54Q369.79-26.94 368.58-24.45L368.58-24.45L368.58-24.45Q365.89-18.69 365.89-12.86L365.89-12.86L365.89-12.86Q365.89-9.66 367.10-8.22L367.10-8.22L367.10-8.22Q368.32-6.78 371.01-6.78L371.01-6.78L371.01-6.78Q374.72-6.78 377.66-9.86L377.66-9.86L377.66-9.86Q378.50-10.82 378.94-11.90L378.94-11.90L378.94-11.90Q381.38-10.62 381.38-7.10L381.38-7.10L381.38-7.10Q381.38-3.52 377.41-1.15L377.41-1.15L377.41-1.15Q373.31 1.28 366.78 1.28L366.78 1.28L366.78 1.28Q353.79 1.28 353.79-12.48L353.79-12.48L353.79-12.48Q353.79-22.53 359.49-28.29L359.49-28.29L359.49-28.29Q364.99-33.92 375.10-33.92L375.10-33.92L375.10-33.92Q385.22-33.92 385.22-26.62ZM419.14-7.10L419.14-7.10L419.14-7.10Q419.14-4.29 422.02-3.46L422.02-3.46L422.02-3.46Q421.31-1.09 418.56 0.19L418.56 0.19L418.56 0.19Q416.26 1.28 413.73 1.28L413.73 1.28L413.73 1.28Q411.20 1.28 409.89 0.61L409.89 0.61L409.89 0.61Q408.58-0.06 407.87-1.15L407.87-1.15L407.87-1.15Q406.72-2.82 406.72-5.95L406.72-5.95L406.72-5.95Q406.72-7.81 407.74-12.93L407.74-12.93L408.64-17.79L408.64-17.79Q409.73-23.36 409.73-25.41L409.73-25.41L409.73-25.41Q409.73-28.99 407.74-28.99L407.74-28.99L407.74-28.99Q405.25-28.99 403.65-25.34L403.65-25.34L403.65-25.34Q403.01-23.94 402.56-21.82L402.56-21.82L398.21 0L385.34 1.28L394.37-44.80L407.23-46.08L406.72-43.52L406.72-43.52Q404.93-33.66 403.39-30.34L403.39-30.34L403.39-30.34Q406.98-33.92 413.57-33.92L413.57-33.92L413.57-33.92Q420.54-33.92 421.82-29.31L421.82-29.31L421.82-29.31Q422.27-27.84 422.27-26.56L422.27-26.56L422.27-26.56Q422.27-25.28 422.18-24.29L422.18-24.29L422.18-24.29Q422.08-23.30 421.76-21.50L421.76-21.50L420.93-16.90L419.46-9.66L419.46-9.66Q419.14-8.19 419.14-7.10Z" fill="#000"></path></g></g><style>text {
  font-size: 64px;
  font-family: Arial Black;
  dominant-baseline: central;
  text-anchor: middle;
}</style></svg>